<?xml version="1.0" encoding="UTF-8" standalone="no"?>
<!DOCTYPE svg PUBLIC "-//W3C//DTD SVG 1.1//EN"
 "http://www.w3.org/Graphics/SVG/1.1/DTD/svg11.dtd">
<!-- Generated by graphviz version 2.43.0 (0)
 -->
<!-- Title: %3 Pages: 1 -->
<svg width="377pt" height="165pt"
 viewBox="0.00 0.00 377.00 164.74" xmlns="http://www.w3.org/2000/svg" xmlns:xlink="http://www.w3.org/1999/xlink">
<g id="graph0" class="graph" transform="scale(1 1) rotate(0) translate(36 128.74)">
<title>%3</title>
<polygon fill="dimgray" stroke="transparent" points="-36,36 -36,-128.74 341,-128.74 341,36 -36,36"/>
<text text-anchor="middle" x="152.5" y="-77.54" font-family="Helvetica,sans-Serif" font-size="14.00">Sweep&#39;s Plan &amp; Progress</text>
<!-- start -->
<g id="node1" class="node">
<title>start</title>
</g>
<!-- d3088af0&#45;2e21&#45;44b8&#45;ba89&#45;99a16828d013 -->
<g id="node3" class="node">
<title>d3088af0&#45;2e21&#45;44b8&#45;ba89&#45;99a16828d013</title>
<ellipse fill="yellow" stroke="black" cx="149.5" cy="-26.87" rx="96.75" ry="26.74"/>
<text text-anchor="middle" x="149.5" y="-30.67" font-family="Helvetica,sans-Serif" font-size="14.00">⋯ Modify</text>
<text text-anchor="middle" x="149.5" y="-15.67" font-family="Helvetica,sans-Serif" font-size="14.00">public/index.html</text>
</g>
<!-- start&#45;&gt;d3088af0&#45;2e21&#45;44b8&#45;ba89&#45;99a16828d013 -->
<g id="edge1" class="edge">
<title>start&#45;&gt;d3088af0&#45;2e21&#45;44b8&#45;ba89&#45;99a16828d013</title>
<path fill="none" stroke="black" d="M1.16,-26.87C4.63,-26.87 21.24,-26.87 42.18,-26.87"/>
<polygon fill="black" stroke="black" points="42.42,-30.37 52.42,-26.87 42.42,-23.37 42.42,-30.37"/>
<text text-anchor="middle" x="26.81" y="-33.67" font-family="Helvetica,sans-Serif" font-size="14.00">Start</text>
</g>
<!-- end -->
<g id="node2" class="node">
<title>end</title>
</g>
<!-- d3088af0&#45;2e21&#45;44b8&#45;ba89&#45;99a16828d013&#45;&gt;end -->
<g id="edge2" class="edge">
<title>d3088af0&#45;2e21&#45;44b8&#45;ba89&#45;99a16828d013&#45;&gt;end</title>
<path fill="none" stroke="black" d="M246.78,-26.87C265.75,-26.87 283.01,-26.87 293.62,-26.87"/>
<polygon fill="black" stroke="black" points="293.82,-30.37 303.82,-26.87 293.82,-23.37 293.82,-30.37"/>
<text text-anchor="middle" x="275.19" y="-33.67" font-family="Helvetica,sans-Serif" font-size="14.00">Finish</text>
</g>
</g>
</svg>
