<?xml version="1.0" encoding="UTF-8" standalone="no"?>
<!DOCTYPE svg PUBLIC "-//W3C//DTD SVG 1.1//EN"
 "http://www.w3.org/Graphics/SVG/1.1/DTD/svg11.dtd">
<!-- Generated by graphviz version 2.43.0 (0)
 -->
<!-- Title: %3 Pages: 1 -->
<svg width="503pt" height="165pt"
 viewBox="0.00 0.00 503.00 164.74" xmlns="http://www.w3.org/2000/svg" xmlns:xlink="http://www.w3.org/1999/xlink">
<g id="graph0" class="graph" transform="scale(1 1) rotate(0) translate(36 128.74)">
<title>%3</title>
<polygon fill="dimgray" stroke="transparent" points="-36,36 -36,-128.74 467,-128.74 467,36 -36,36"/>
<text text-anchor="middle" x="215.5" y="-77.54" font-family="Helvetica,sans-Serif" font-size="14.00">Sweep&#39;s Plan &amp; Progress</text>
<!-- start -->
<g id="node1" class="node">
<title>start</title>
</g>
<!-- a4d4b006&#45;da65&#45;43b2&#45;bb5b&#45;5a480f9d84f7 -->
<g id="node3" class="node">
<title>a4d4b006&#45;da65&#45;43b2&#45;bb5b&#45;5a480f9d84f7</title>
<ellipse fill="#0ee832" stroke="black" cx="112.5" cy="-26.87" rx="60.21" ry="26.74"/>
<text text-anchor="middle" x="112.5" y="-30.67" font-family="Helvetica,sans-Serif" font-size="14.00">✓ Modify</text>
<text text-anchor="middle" x="112.5" y="-15.67" font-family="Helvetica,sans-Serif" font-size="14.00">src/App.js</text>
</g>
<!-- start&#45;&gt;a4d4b006&#45;da65&#45;43b2&#45;bb5b&#45;5a480f9d84f7 -->
<g id="edge2" class="edge">
<title>start&#45;&gt;a4d4b006&#45;da65&#45;43b2&#45;bb5b&#45;5a480f9d84f7</title>
<path fill="none" stroke="black" d="M1.22,-26.87C4.88,-26.87 22.16,-26.87 42.06,-26.87"/>
<polygon fill="black" stroke="black" points="42.31,-30.37 52.31,-26.87 42.31,-23.37 42.31,-30.37"/>
<text text-anchor="middle" x="26.7" y="-33.67" font-family="Helvetica,sans-Serif" font-size="14.00">Start</text>
</g>
<!-- end -->
<g id="node2" class="node">
<title>end</title>
</g>
<!-- 715258cb&#45;c498&#45;466f&#45;aa7e&#45;4e953991e4da -->
<g id="node4" class="node">
<title>715258cb&#45;c498&#45;466f&#45;aa7e&#45;4e953991e4da</title>
<ellipse fill="yellow" stroke="black" cx="290.5" cy="-26.87" rx="82.05" ry="26.74"/>
<text text-anchor="middle" x="290.5" y="-30.67" font-family="Helvetica,sans-Serif" font-size="14.00">⋯ Create</text>
<text text-anchor="middle" x="290.5" y="-15.67" font-family="Helvetica,sans-Serif" font-size="14.00">src/App.test.js</text>
</g>
<!-- a4d4b006&#45;da65&#45;43b2&#45;bb5b&#45;5a480f9d84f7&#45;&gt;715258cb&#45;c498&#45;466f&#45;aa7e&#45;4e953991e4da -->
<g id="edge1" class="edge">
<title>a4d4b006&#45;da65&#45;43b2&#45;bb5b&#45;5a480f9d84f7&#45;&gt;715258cb&#45;c498&#45;466f&#45;aa7e&#45;4e953991e4da</title>
<path fill="none" stroke="black" d="M172.64,-26.87C181.05,-26.87 189.45,-26.87 197.85,-26.87"/>
<polygon fill="black" stroke="black" points="198.09,-30.37 208.09,-26.87 198.09,-23.37 198.09,-30.37"/>
</g>
<!-- 715258cb&#45;c498&#45;466f&#45;aa7e&#45;4e953991e4da&#45;&gt;end -->
<g id="edge3" class="edge">
<title>715258cb&#45;c498&#45;466f&#45;aa7e&#45;4e953991e4da&#45;&gt;end</title>
<path fill="none" stroke="black" d="M372.75,-26.87C391.52,-26.87 409.08,-26.87 419.8,-26.87"/>
<polygon fill="black" stroke="black" points="419.8,-30.37 429.8,-26.87 419.8,-23.37 419.8,-30.37"/>
<text text-anchor="middle" x="401.26" y="-33.67" font-family="Helvetica,sans-Serif" font-size="14.00">Finish</text>
</g>
</g>
</svg>
