<?xml version="1.0" encoding="UTF-8" standalone="no"?>
<!DOCTYPE svg PUBLIC "-//W3C//DTD SVG 1.1//EN"
 "http://www.w3.org/Graphics/SVG/1.1/DTD/svg11.dtd">
<!-- Generated by graphviz version 2.43.0 (0)
 -->
<!-- Title: %3 Pages: 1 -->
<svg width="1004pt" height="238pt"
 viewBox="0.00 0.00 1003.50 237.74" xmlns="http://www.w3.org/2000/svg" xmlns:xlink="http://www.w3.org/1999/xlink">
<g id="graph0" class="graph" transform="scale(1 1) rotate(0) translate(36 201.74)">
<title>%3</title>
<polygon fill="dimgray" stroke="transparent" points="-36,36 -36,-201.74 967.5,-201.74 967.5,36 -36,36"/>
<text text-anchor="middle" x="465.75" y="-150.54" font-family="Helvetica,sans-Serif" font-size="14.00">Sweep&#39;s Plan &amp; Progress</text>
<!-- start -->
<g id="node1" class="node">
<title>start</title>
</g>
<!-- e36041c4&#45;971c&#45;4b43&#45;accc&#45;f617f781a360 -->
<g id="node3" class="node">
<title>e36041c4&#45;971c&#45;4b43&#45;accc&#45;f617f781a360</title>
<ellipse fill="#0ee832" stroke="black" cx="231" cy="-99.87" rx="96.75" ry="26.74"/>
<text text-anchor="middle" x="231" y="-103.67" font-family="Helvetica,sans-Serif" font-size="14.00">✓ Modify</text>
<text text-anchor="middle" x="231" y="-88.67" font-family="Helvetica,sans-Serif" font-size="14.00">public/index.html</text>
</g>
<!-- start&#45;&gt;e36041c4&#45;971c&#45;4b43&#45;accc&#45;f617f781a360 -->
<g id="edge6" class="edge">
<title>start&#45;&gt;e36041c4&#45;971c&#45;4b43&#45;accc&#45;f617f781a360</title>
<path fill="none" stroke="black" d="M82.66,-99.87C86.13,-99.87 102.74,-99.87 123.68,-99.87"/>
<polygon fill="black" stroke="black" points="123.92,-103.37 133.92,-99.87 123.92,-96.37 123.92,-103.37"/>
<text text-anchor="middle" x="108.31" y="-106.67" font-family="Helvetica,sans-Serif" font-size="14.00">Start</text>
</g>
<!-- end -->
<g id="node2" class="node">
<title>end</title>
</g>
<!-- 30fd3135&#45;6690&#45;4f88&#45;ba85&#45;8b5a11781b92 -->
<g id="node4" class="node">
<title>30fd3135&#45;6690&#45;4f88&#45;ba85&#45;8b5a11781b92</title>
<ellipse fill="white" stroke="black" cx="488" cy="-99.87" rx="60.21" ry="26.74"/>
<text text-anchor="middle" x="488" y="-103.67" font-family="Helvetica,sans-Serif" font-size="14.00">▶ Modify</text>
<text text-anchor="middle" x="488" y="-88.67" font-family="Helvetica,sans-Serif" font-size="14.00">src/App.js</text>
</g>
<!-- e36041c4&#45;971c&#45;4b43&#45;accc&#45;f617f781a360&#45;&gt;30fd3135&#45;6690&#45;4f88&#45;ba85&#45;8b5a11781b92 -->
<g id="edge2" class="edge">
<title>e36041c4&#45;971c&#45;4b43&#45;accc&#45;f617f781a360&#45;&gt;30fd3135&#45;6690&#45;4f88&#45;ba85&#45;8b5a11781b92</title>
<path fill="none" stroke="black" d="M327.88,-99.87C357.75,-99.87 387.63,-99.87 417.51,-99.87"/>
<polygon fill="black" stroke="black" points="417.64,-103.37 427.64,-99.87 417.64,-96.37 417.64,-103.37"/>
</g>
<!-- b5bfb31f&#45;882e&#45;4fcf&#45;90ef&#45;5a37c03a9d6e -->
<g id="node6" class="node">
<title>b5bfb31f&#45;882e&#45;4fcf&#45;90ef&#45;5a37c03a9d6e</title>
<polygon fill="yellow" stroke="black" points="332,-36 0,-36 0,0 332,0 332,-36"/>
<text text-anchor="middle" x="166" y="-14.3" font-family="Helvetica,sans-Serif" font-size="14.00">⋯ Run GitHub Actions for `public/index.html`</text>
</g>
<!-- e36041c4&#45;971c&#45;4b43&#45;accc&#45;f617f781a360&#45;&gt;b5bfb31f&#45;882e&#45;4fcf&#45;90ef&#45;5a37c03a9d6e -->
<g id="edge1" class="edge">
<title>e36041c4&#45;971c&#45;4b43&#45;accc&#45;f617f781a360&#45;&gt;b5bfb31f&#45;882e&#45;4fcf&#45;90ef&#45;5a37c03a9d6e</title>
<path fill="none" stroke="black" stroke-dasharray="5,2" d="M210.43,-73.6C202.72,-64.13 193.97,-53.37 186.29,-43.93"/>
<polygon fill="black" stroke="black" points="188.89,-41.58 179.86,-36.04 183.46,-46 188.89,-41.58"/>
</g>
<!-- 770f3d8a&#45;ac63&#45;4c4d&#45;94cd&#45;35bb02291ea5 -->
<g id="node5" class="node">
<title>770f3d8a&#45;ac63&#45;4c4d&#45;94cd&#45;35bb02291ea5</title>
<ellipse fill="white" stroke="black" cx="720" cy="-99.87" rx="67.35" ry="26.74"/>
<text text-anchor="middle" x="720" y="-103.67" font-family="Helvetica,sans-Serif" font-size="14.00">▶ Modify</text>
<text text-anchor="middle" x="720" y="-88.67" font-family="Helvetica,sans-Serif" font-size="14.00">src/index.js</text>
</g>
<!-- 30fd3135&#45;6690&#45;4f88&#45;ba85&#45;8b5a11781b92&#45;&gt;770f3d8a&#45;ac63&#45;4c4d&#45;94cd&#45;35bb02291ea5 -->
<g id="edge4" class="edge">
<title>30fd3135&#45;6690&#45;4f88&#45;ba85&#45;8b5a11781b92&#45;&gt;770f3d8a&#45;ac63&#45;4c4d&#45;94cd&#45;35bb02291ea5</title>
<path fill="none" stroke="black" d="M548.27,-99.87C579.64,-99.87 611.02,-99.87 642.39,-99.87"/>
<polygon fill="black" stroke="black" points="642.58,-103.37 652.58,-99.87 642.58,-96.37 642.58,-103.37"/>
</g>
<!-- 293deb29&#45;5df9&#45;48d3&#45;a6a3&#45;1067fa954408 -->
<g id="node7" class="node">
<title>293deb29&#45;5df9&#45;48d3&#45;a6a3&#45;1067fa954408</title>
<polygon fill="white" stroke="black" points="626,-36 350,-36 350,0 626,0 626,-36"/>
<text text-anchor="middle" x="488" y="-14.3" font-family="Helvetica,sans-Serif" font-size="14.00">▶ Run GitHub Actions for `src/App.js`</text>
</g>
<!-- 30fd3135&#45;6690&#45;4f88&#45;ba85&#45;8b5a11781b92&#45;&gt;293deb29&#45;5df9&#45;48d3&#45;a6a3&#45;1067fa954408 -->
<g id="edge3" class="edge">
<title>30fd3135&#45;6690&#45;4f88&#45;ba85&#45;8b5a11781b92&#45;&gt;293deb29&#45;5df9&#45;48d3&#45;a6a3&#45;1067fa954408</title>
<path fill="none" stroke="black" stroke-dasharray="5,2" d="M488,-72.72C488,-64.27 488,-54.89 488,-46.36"/>
<polygon fill="black" stroke="black" points="491.5,-46.15 488,-36.15 484.5,-46.15 491.5,-46.15"/>
</g>
<!-- 770f3d8a&#45;ac63&#45;4c4d&#45;94cd&#45;35bb02291ea5&#45;&gt;end -->
<g id="edge7" class="edge">
<title>770f3d8a&#45;ac63&#45;4c4d&#45;94cd&#45;35bb02291ea5&#45;&gt;end</title>
<path fill="none" stroke="black" d="M787.26,-99.87C805.48,-99.87 823.16,-99.87 834.06,-99.87"/>
<polygon fill="black" stroke="black" points="834.28,-103.37 844.28,-99.87 834.28,-96.37 834.28,-103.37"/>
<text text-anchor="middle" x="815.84" y="-106.67" font-family="Helvetica,sans-Serif" font-size="14.00">Finish</text>
</g>
<!-- 19515fa3&#45;eb13&#45;4a15&#45;b9a1&#45;bc29a2bff439 -->
<g id="node8" class="node">
<title>19515fa3&#45;eb13&#45;4a15&#45;b9a1&#45;bc29a2bff439</title>
<polygon fill="white" stroke="black" points="931.5,-36 644.5,-36 644.5,0 931.5,0 931.5,-36"/>
<text text-anchor="middle" x="788" y="-14.3" font-family="Helvetica,sans-Serif" font-size="14.00">▶ Run GitHub Actions for `src/index.js`</text>
</g>
<!-- 770f3d8a&#45;ac63&#45;4c4d&#45;94cd&#45;35bb02291ea5&#45;&gt;19515fa3&#45;eb13&#45;4a15&#45;b9a1&#45;bc29a2bff439 -->
<g id="edge5" class="edge">
<title>770f3d8a&#45;ac63&#45;4c4d&#45;94cd&#45;35bb02291ea5&#45;&gt;19515fa3&#45;eb13&#45;4a15&#45;b9a1&#45;bc29a2bff439</title>
<path fill="none" stroke="black" stroke-dasharray="5,2" d="M741.14,-74.04C749.31,-64.45 758.63,-53.5 766.8,-43.9"/>
<polygon fill="black" stroke="black" points="769.52,-46.11 773.34,-36.22 764.19,-41.57 769.52,-46.11"/>
</g>
</g>
</svg>
