<?xml version="1.0" encoding="UTF-8" standalone="no"?>
<!DOCTYPE svg PUBLIC "-//W3C//DTD SVG 1.1//EN"
 "http://www.w3.org/Graphics/SVG/1.1/DTD/svg11.dtd">
<!-- Generated by graphviz version 2.43.0 (0)
 -->
<!-- Title: %3 Pages: 1 -->
<svg width="372pt" height="238pt"
 viewBox="0.00 0.00 372.00 237.74" xmlns="http://www.w3.org/2000/svg" xmlns:xlink="http://www.w3.org/1999/xlink">
<g id="graph0" class="graph" transform="scale(1 1) rotate(0) translate(36 201.74)">
<title>%3</title>
<polygon fill="dimgray" stroke="transparent" points="-36,36 -36,-201.74 336,-201.74 336,36 -36,36"/>
<text text-anchor="middle" x="150" y="-150.54" font-family="Helvetica,sans-Serif" font-size="14.00">Sweep&#39;s Plan &amp; Progress</text>
<!-- start -->
<g id="node1" class="node">
<title>start</title>
</g>
<!-- fc525eca&#45;5fab&#45;4ee0&#45;8337&#45;f4f569a4b6da -->
<g id="node3" class="node">
<title>fc525eca&#45;5fab&#45;4ee0&#45;8337&#45;f4f569a4b6da</title>
<ellipse fill="#ee0000" stroke="black" cx="150" cy="-99.87" rx="75.82" ry="26.74"/>
<text text-anchor="middle" x="150" y="-103.67" font-family="Helvetica,sans-Serif" font-size="14.00">✗ Modify</text>
<text text-anchor="middle" x="150" y="-88.67" font-family="Helvetica,sans-Serif" font-size="14.00">package.json</text>
</g>
<!-- start&#45;&gt;fc525eca&#45;5fab&#45;4ee0&#45;8337&#45;f4f569a4b6da -->
<g id="edge2" class="edge">
<title>start&#45;&gt;fc525eca&#45;5fab&#45;4ee0&#45;8337&#45;f4f569a4b6da</title>
<path fill="none" stroke="black" d="M22.82,-99.87C26.66,-99.87 43.59,-99.87 63.92,-99.87"/>
<polygon fill="black" stroke="black" points="64.12,-103.37 74.12,-99.87 64.12,-96.37 64.12,-103.37"/>
<text text-anchor="middle" x="48.42" y="-106.67" font-family="Helvetica,sans-Serif" font-size="14.00">Start</text>
</g>
<!-- end -->
<g id="node2" class="node">
<title>end</title>
</g>
<!-- fc525eca&#45;5fab&#45;4ee0&#45;8337&#45;f4f569a4b6da&#45;&gt;end -->
<g id="edge3" class="edge">
<title>fc525eca&#45;5fab&#45;4ee0&#45;8337&#45;f4f569a4b6da&#45;&gt;end</title>
<path fill="none" stroke="black" d="M226.01,-99.87C244.63,-99.87 262.32,-99.87 273.15,-99.87"/>
<polygon fill="black" stroke="black" points="273.29,-103.37 283.29,-99.87 273.29,-96.37 273.29,-103.37"/>
<text text-anchor="middle" x="254.58" y="-106.67" font-family="Helvetica,sans-Serif" font-size="14.00">Finish</text>
</g>
<!-- 44679cbf&#45;dd33&#45;4456&#45;aacf&#45;ef991dec5cb6 -->
<g id="node4" class="node">
<title>44679cbf&#45;dd33&#45;4456&#45;aacf&#45;ef991dec5cb6</title>
<polygon fill="#ee0000" stroke="black" points="300,-36 0,-36 0,0 300,0 300,-36"/>
<text text-anchor="middle" x="150" y="-14.3" font-family="Helvetica,sans-Serif" font-size="14.00">✗ Run GitHub Actions for `package.json`</text>
</g>
<!-- fc525eca&#45;5fab&#45;4ee0&#45;8337&#45;f4f569a4b6da&#45;&gt;44679cbf&#45;dd33&#45;4456&#45;aacf&#45;ef991dec5cb6 -->
<g id="edge1" class="edge">
<title>fc525eca&#45;5fab&#45;4ee0&#45;8337&#45;f4f569a4b6da&#45;&gt;44679cbf&#45;dd33&#45;4456&#45;aacf&#45;ef991dec5cb6</title>
<path fill="none" stroke="black" stroke-dasharray="5,2" d="M150,-72.72C150,-64.27 150,-54.89 150,-46.36"/>
<polygon fill="black" stroke="black" points="153.5,-46.15 150,-36.15 146.5,-46.15 153.5,-46.15"/>
</g>
</g>
</svg>
