<?xml version="1.0" encoding="UTF-8" standalone="no"?>
<!DOCTYPE svg PUBLIC "-//W3C//DTD SVG 1.1//EN"
 "http://www.w3.org/Graphics/SVG/1.1/DTD/svg11.dtd">
<!-- Generated by graphviz version 2.43.0 (0)
 -->
<!-- Title: %3 Pages: 1 -->
<svg width="404pt" height="238pt"
 viewBox="0.00 0.00 404.00 237.74" xmlns="http://www.w3.org/2000/svg" xmlns:xlink="http://www.w3.org/1999/xlink">
<g id="graph0" class="graph" transform="scale(1 1) rotate(0) translate(36 201.74)">
<title>%3</title>
<polygon fill="dimgray" stroke="transparent" points="-36,36 -36,-201.74 368,-201.74 368,36 -36,36"/>
<text text-anchor="middle" x="166" y="-150.54" font-family="Helvetica,sans-Serif" font-size="14.00">Sweep&#39;s Plan &amp; Progress</text>
<!-- start -->
<g id="node1" class="node">
<title>start</title>
</g>
<!-- 54ab3095&#45;1cc1&#45;4571&#45;805b&#45;84b2e47027df -->
<g id="node3" class="node">
<title>54ab3095&#45;1cc1&#45;4571&#45;805b&#45;84b2e47027df</title>
<ellipse fill="#0ee832" stroke="black" cx="166" cy="-99.87" rx="96.75" ry="26.74"/>
<text text-anchor="middle" x="166" y="-103.67" font-family="Helvetica,sans-Serif" font-size="14.00">✓ Modify</text>
<text text-anchor="middle" x="166" y="-88.67" font-family="Helvetica,sans-Serif" font-size="14.00">public/index.html</text>
</g>
<!-- start&#45;&gt;54ab3095&#45;1cc1&#45;4571&#45;805b&#45;84b2e47027df -->
<g id="edge2" class="edge">
<title>start&#45;&gt;54ab3095&#45;1cc1&#45;4571&#45;805b&#45;84b2e47027df</title>
<path fill="none" stroke="black" d="M17.66,-99.87C21.13,-99.87 37.74,-99.87 58.68,-99.87"/>
<polygon fill="black" stroke="black" points="58.92,-103.37 68.92,-99.87 58.92,-96.37 58.92,-103.37"/>
<text text-anchor="middle" x="43.31" y="-106.67" font-family="Helvetica,sans-Serif" font-size="14.00">Start</text>
</g>
<!-- end -->
<g id="node2" class="node">
<title>end</title>
</g>
<!-- 54ab3095&#45;1cc1&#45;4571&#45;805b&#45;84b2e47027df&#45;&gt;end -->
<g id="edge3" class="edge">
<title>54ab3095&#45;1cc1&#45;4571&#45;805b&#45;84b2e47027df&#45;&gt;end</title>
<path fill="none" stroke="black" d="M263.28,-99.87C282.25,-99.87 299.51,-99.87 310.12,-99.87"/>
<polygon fill="black" stroke="black" points="310.32,-103.37 320.32,-99.87 310.32,-96.37 310.32,-103.37"/>
<text text-anchor="middle" x="291.69" y="-106.67" font-family="Helvetica,sans-Serif" font-size="14.00">Finish</text>
</g>
<!-- 2f2a0d79&#45;7765&#45;418a&#45;98f1&#45;a574aaa9b6c5 -->
<g id="node4" class="node">
<title>2f2a0d79&#45;7765&#45;418a&#45;98f1&#45;a574aaa9b6c5</title>
<polygon fill="yellow" stroke="black" points="332,-36 0,-36 0,0 332,0 332,-36"/>
<text text-anchor="middle" x="166" y="-14.3" font-family="Helvetica,sans-Serif" font-size="14.00">⋯ Run GitHub Actions for `public/index.html`</text>
</g>
<!-- 54ab3095&#45;1cc1&#45;4571&#45;805b&#45;84b2e47027df&#45;&gt;2f2a0d79&#45;7765&#45;418a&#45;98f1&#45;a574aaa9b6c5 -->
<g id="edge1" class="edge">
<title>54ab3095&#45;1cc1&#45;4571&#45;805b&#45;84b2e47027df&#45;&gt;2f2a0d79&#45;7765&#45;418a&#45;98f1&#45;a574aaa9b6c5</title>
<path fill="none" stroke="black" stroke-dasharray="5,2" d="M166,-72.72C166,-64.27 166,-54.89 166,-46.36"/>
<polygon fill="black" stroke="black" points="169.5,-46.15 166,-36.15 162.5,-46.15 169.5,-46.15"/>
</g>
</g>
</svg>
