<?xml version="1.0" encoding="UTF-8" standalone="no"?>
<!DOCTYPE svg PUBLIC "-//W3C//DTD SVG 1.1//EN"
 "http://www.w3.org/Graphics/SVG/1.1/DTD/svg11.dtd">
<!-- Generated by graphviz version 2.43.0 (0)
 -->
<!-- Title: %3 Pages: 1 -->
<svg width="371pt" height="238pt"
 viewBox="0.00 0.00 371.00 237.74" xmlns="http://www.w3.org/2000/svg" xmlns:xlink="http://www.w3.org/1999/xlink">
<g id="graph0" class="graph" transform="scale(1 1) rotate(0) translate(36 201.74)">
<title>%3</title>
<polygon fill="dimgray" stroke="transparent" points="-36,36 -36,-201.74 335,-201.74 335,36 -36,36"/>
<text text-anchor="middle" x="149.5" y="-150.54" font-family="Helvetica,sans-Serif" font-size="14.00">Sweep&#39;s Plan &amp; Progress</text>
<!-- start -->
<g id="node1" class="node">
<title>start</title>
</g>
<!-- 0b8b9d30&#45;9c46&#45;4277&#45;b64b&#45;d156ad0cc053 -->
<g id="node3" class="node">
<title>0b8b9d30&#45;9c46&#45;4277&#45;b64b&#45;d156ad0cc053</title>
<ellipse fill="yellow" stroke="black" cx="149.5" cy="-99.87" rx="75.82" ry="26.74"/>
<text text-anchor="middle" x="149.5" y="-103.67" font-family="Helvetica,sans-Serif" font-size="14.00">⋯ Modify</text>
<text text-anchor="middle" x="149.5" y="-88.67" font-family="Helvetica,sans-Serif" font-size="14.00">package.json</text>
</g>
<!-- start&#45;&gt;0b8b9d30&#45;9c46&#45;4277&#45;b64b&#45;d156ad0cc053 -->
<g id="edge2" class="edge">
<title>start&#45;&gt;0b8b9d30&#45;9c46&#45;4277&#45;b64b&#45;d156ad0cc053</title>
<path fill="none" stroke="black" d="M22.32,-99.87C26.16,-99.87 43.09,-99.87 63.42,-99.87"/>
<polygon fill="black" stroke="black" points="63.62,-103.37 73.62,-99.87 63.62,-96.37 63.62,-103.37"/>
<text text-anchor="middle" x="47.92" y="-106.67" font-family="Helvetica,sans-Serif" font-size="14.00">Start</text>
</g>
<!-- end -->
<g id="node2" class="node">
<title>end</title>
</g>
<!-- 0b8b9d30&#45;9c46&#45;4277&#45;b64b&#45;d156ad0cc053&#45;&gt;end -->
<g id="edge3" class="edge">
<title>0b8b9d30&#45;9c46&#45;4277&#45;b64b&#45;d156ad0cc053&#45;&gt;end</title>
<path fill="none" stroke="black" d="M225.51,-99.87C244.13,-99.87 261.82,-99.87 272.65,-99.87"/>
<polygon fill="black" stroke="black" points="272.79,-103.37 282.79,-99.87 272.79,-96.37 272.79,-103.37"/>
<text text-anchor="middle" x="254.08" y="-106.67" font-family="Helvetica,sans-Serif" font-size="14.00">Finish</text>
</g>
<!-- 1b096b2a&#45;b9e4&#45;4e61&#45;b637&#45;ed6de3e4f3c1 -->
<g id="node4" class="node">
<title>1b096b2a&#45;b9e4&#45;4e61&#45;b637&#45;ed6de3e4f3c1</title>
<polygon fill="white" stroke="black" points="299,-36 0,-36 0,0 299,0 299,-36"/>
<text text-anchor="middle" x="149.5" y="-14.3" font-family="Helvetica,sans-Serif" font-size="14.00">▶ Run GitHub Actions for `package.json`</text>
</g>
<!-- 0b8b9d30&#45;9c46&#45;4277&#45;b64b&#45;d156ad0cc053&#45;&gt;1b096b2a&#45;b9e4&#45;4e61&#45;b637&#45;ed6de3e4f3c1 -->
<g id="edge1" class="edge">
<title>0b8b9d30&#45;9c46&#45;4277&#45;b64b&#45;d156ad0cc053&#45;&gt;1b096b2a&#45;b9e4&#45;4e61&#45;b637&#45;ed6de3e4f3c1</title>
<path fill="none" stroke="black" stroke-dasharray="5,2" d="M149.5,-72.72C149.5,-64.27 149.5,-54.89 149.5,-46.36"/>
<polygon fill="black" stroke="black" points="153,-46.15 149.5,-36.15 146,-46.15 153,-46.15"/>
</g>
</g>
</svg>
