<?xml version="1.0" encoding="UTF-8" standalone="no"?>
<!DOCTYPE svg PUBLIC "-//W3C//DTD SVG 1.1//EN"
 "http://www.w3.org/Graphics/SVG/1.1/DTD/svg11.dtd">
<!-- Generated by graphviz version 2.43.0 (0)
 -->
<!-- Title: %3 Pages: 1 -->
<svg width="503pt" height="165pt"
 viewBox="0.00 0.00 503.00 164.74" xmlns="http://www.w3.org/2000/svg" xmlns:xlink="http://www.w3.org/1999/xlink">
<g id="graph0" class="graph" transform="scale(1 1) rotate(0) translate(36 128.74)">
<title>%3</title>
<polygon fill="dimgray" stroke="transparent" points="-36,36 -36,-128.74 467,-128.74 467,36 -36,36"/>
<text text-anchor="middle" x="215.5" y="-77.54" font-family="Helvetica,sans-Serif" font-size="14.00">Sweep&#39;s Plan &amp; Progress</text>
<!-- start -->
<g id="node1" class="node">
<title>start</title>
</g>
<!-- 689d0b48&#45;8553&#45;47c2&#45;b24d&#45;35c7041b8ab3 -->
<g id="node3" class="node">
<title>689d0b48&#45;8553&#45;47c2&#45;b24d&#45;35c7041b8ab3</title>
<ellipse fill="yellow" stroke="black" cx="134.5" cy="-26.87" rx="82.05" ry="26.74"/>
<text text-anchor="middle" x="134.5" y="-30.67" font-family="Helvetica,sans-Serif" font-size="14.00">⋯ Create</text>
<text text-anchor="middle" x="134.5" y="-15.67" font-family="Helvetica,sans-Serif" font-size="14.00">src/App.test.js</text>
</g>
<!-- start&#45;&gt;689d0b48&#45;8553&#45;47c2&#45;b24d&#45;35c7041b8ab3 -->
<g id="edge2" class="edge">
<title>start&#45;&gt;689d0b48&#45;8553&#45;47c2&#45;b24d&#45;35c7041b8ab3</title>
<path fill="none" stroke="black" d="M1.36,-26.87C5.23,-26.87 21.78,-26.87 41.96,-26.87"/>
<polygon fill="black" stroke="black" points="42.13,-30.37 52.13,-26.87 42.13,-23.37 42.13,-30.37"/>
<text text-anchor="middle" x="26.74" y="-33.67" font-family="Helvetica,sans-Serif" font-size="14.00">Start</text>
</g>
<!-- end -->
<g id="node2" class="node">
<title>end</title>
</g>
<!-- 685d6517&#45;8485&#45;4f6d&#45;bd78&#45;4ca5d2d1b6cd -->
<g id="node4" class="node">
<title>685d6517&#45;8485&#45;4f6d&#45;bd78&#45;4ca5d2d1b6cd</title>
<ellipse fill="white" stroke="black" cx="312.5" cy="-26.87" rx="60.21" ry="26.74"/>
<text text-anchor="middle" x="312.5" y="-30.67" font-family="Helvetica,sans-Serif" font-size="14.00">▶ Modify</text>
<text text-anchor="middle" x="312.5" y="-15.67" font-family="Helvetica,sans-Serif" font-size="14.00">src/App.js</text>
</g>
<!-- 689d0b48&#45;8553&#45;47c2&#45;b24d&#45;35c7041b8ab3&#45;&gt;685d6517&#45;8485&#45;4f6d&#45;bd78&#45;4ca5d2d1b6cd -->
<g id="edge1" class="edge">
<title>689d0b48&#45;8553&#45;47c2&#45;b24d&#45;35c7041b8ab3&#45;&gt;685d6517&#45;8485&#45;4f6d&#45;bd78&#45;4ca5d2d1b6cd</title>
<path fill="none" stroke="black" d="M216.55,-26.87C225.08,-26.87 233.61,-26.87 242.14,-26.87"/>
<polygon fill="black" stroke="black" points="242.15,-30.37 252.15,-26.87 242.15,-23.37 242.15,-30.37"/>
</g>
<!-- 685d6517&#45;8485&#45;4f6d&#45;bd78&#45;4ca5d2d1b6cd&#45;&gt;end -->
<g id="edge3" class="edge">
<title>685d6517&#45;8485&#45;4f6d&#45;bd78&#45;4ca5d2d1b6cd&#45;&gt;end</title>
<path fill="none" stroke="black" d="M372.88,-26.87C390.77,-26.87 408.48,-26.87 419.45,-26.87"/>
<polygon fill="black" stroke="black" points="419.77,-30.37 429.77,-26.87 419.77,-23.37 419.77,-30.37"/>
<text text-anchor="middle" x="401.3" y="-33.67" font-family="Helvetica,sans-Serif" font-size="14.00">Finish</text>
</g>
</g>
</svg>
