<?xml version="1.0" encoding="UTF-8" standalone="no"?>
<!DOCTYPE svg PUBLIC "-//W3C//DTD SVG 1.1//EN"
 "http://www.w3.org/Graphics/SVG/1.1/DTD/svg11.dtd">
<!-- Generated by graphviz version 2.43.0 (0)
 -->
<!-- Title: %3 Pages: 1 -->
<svg width="660pt" height="165pt"
 viewBox="0.00 0.00 660.00 164.74" xmlns="http://www.w3.org/2000/svg" xmlns:xlink="http://www.w3.org/1999/xlink">
<g id="graph0" class="graph" transform="scale(1 1) rotate(0) translate(36 128.74)">
<title>%3</title>
<polygon fill="dimgray" stroke="transparent" points="-36,36 -36,-128.74 624,-128.74 624,36 -36,36"/>
<text text-anchor="middle" x="294" y="-77.54" font-family="Helvetica,sans-Serif" font-size="14.00">Sweep&#39;s Plan &amp; Progress</text>
<!-- start -->
<g id="node1" class="node">
<title>start</title>
</g>
<!-- c69b74ec&#45;e85b&#45;473f&#45;a9de&#45;fb5feae601e7 -->
<g id="node3" class="node">
<title>c69b74ec&#45;e85b&#45;473f&#45;a9de&#45;fb5feae601e7</title>
<ellipse fill="#0ee832" stroke="black" cx="113.5" cy="-26.87" rx="60.62" ry="26.74"/>
<text text-anchor="middle" x="113.5" y="-30.67" font-family="Helvetica,sans-Serif" font-size="14.00">✓ Create</text>
<text text-anchor="middle" x="113.5" y="-15.67" font-family="Helvetica,sans-Serif" font-size="14.00">src/utils.js</text>
</g>
<!-- start&#45;&gt;c69b74ec&#45;e85b&#45;473f&#45;a9de&#45;fb5feae601e7 -->
<g id="edge3" class="edge">
<title>start&#45;&gt;c69b74ec&#45;e85b&#45;473f&#45;a9de&#45;fb5feae601e7</title>
<path fill="none" stroke="black" d="M1.22,-26.87C4.92,-26.87 22.36,-26.87 42.44,-26.87"/>
<polygon fill="black" stroke="black" points="42.46,-30.37 52.46,-26.87 42.46,-23.37 42.46,-30.37"/>
<text text-anchor="middle" x="26.84" y="-33.67" font-family="Helvetica,sans-Serif" font-size="14.00">Start</text>
</g>
<!-- end -->
<g id="node2" class="node">
<title>end</title>
</g>
<!-- 2f486e81&#45;cdb7&#45;45ed&#45;990a&#45;a8bd06925593 -->
<g id="node4" class="node">
<title>2f486e81&#45;cdb7&#45;45ed&#45;990a&#45;a8bd06925593</title>
<ellipse fill="#0ee832" stroke="black" cx="269.5" cy="-26.87" rx="60.21" ry="26.74"/>
<text text-anchor="middle" x="269.5" y="-30.67" font-family="Helvetica,sans-Serif" font-size="14.00">✓ Modify</text>
<text text-anchor="middle" x="269.5" y="-15.67" font-family="Helvetica,sans-Serif" font-size="14.00">src/App.js</text>
</g>
<!-- c69b74ec&#45;e85b&#45;473f&#45;a9de&#45;fb5feae601e7&#45;&gt;2f486e81&#45;cdb7&#45;45ed&#45;990a&#45;a8bd06925593 -->
<g id="edge1" class="edge">
<title>c69b74ec&#45;e85b&#45;473f&#45;a9de&#45;fb5feae601e7&#45;&gt;2f486e81&#45;cdb7&#45;45ed&#45;990a&#45;a8bd06925593</title>
<path fill="none" stroke="black" d="M174.44,-26.87C182.71,-26.87 190.98,-26.87 199.25,-26.87"/>
<polygon fill="black" stroke="black" points="199.34,-30.37 209.34,-26.87 199.34,-23.37 199.34,-30.37"/>
</g>
<!-- b95d0db5&#45;b5e5&#45;4122&#45;a341&#45;4a643370c9cb -->
<g id="node5" class="node">
<title>b95d0db5&#45;b5e5&#45;4122&#45;a341&#45;4a643370c9cb</title>
<ellipse fill="#0ee832" stroke="black" cx="447.5" cy="-26.87" rx="82.05" ry="26.74"/>
<text text-anchor="middle" x="447.5" y="-30.67" font-family="Helvetica,sans-Serif" font-size="14.00">✓ Create</text>
<text text-anchor="middle" x="447.5" y="-15.67" font-family="Helvetica,sans-Serif" font-size="14.00">src/App.test.js</text>
</g>
<!-- 2f486e81&#45;cdb7&#45;45ed&#45;990a&#45;a8bd06925593&#45;&gt;b95d0db5&#45;b5e5&#45;4122&#45;a341&#45;4a643370c9cb -->
<g id="edge2" class="edge">
<title>2f486e81&#45;cdb7&#45;45ed&#45;990a&#45;a8bd06925593&#45;&gt;b95d0db5&#45;b5e5&#45;4122&#45;a341&#45;4a643370c9cb</title>
<path fill="none" stroke="black" d="M329.64,-26.87C338.05,-26.87 346.45,-26.87 354.85,-26.87"/>
<polygon fill="black" stroke="black" points="355.09,-30.37 365.09,-26.87 355.09,-23.37 355.09,-30.37"/>
</g>
<!-- b95d0db5&#45;b5e5&#45;4122&#45;a341&#45;4a643370c9cb&#45;&gt;end -->
<g id="edge4" class="edge">
<title>b95d0db5&#45;b5e5&#45;4122&#45;a341&#45;4a643370c9cb&#45;&gt;end</title>
<path fill="none" stroke="black" d="M529.75,-26.87C548.52,-26.87 566.08,-26.87 576.8,-26.87"/>
<polygon fill="black" stroke="black" points="576.8,-30.37 586.8,-26.87 576.8,-23.37 576.8,-30.37"/>
<text text-anchor="middle" x="558.26" y="-33.67" font-family="Helvetica,sans-Serif" font-size="14.00">Finish</text>
</g>
</g>
</svg>
