<?xml version="1.0" encoding="UTF-8" standalone="no"?>
<!DOCTYPE svg PUBLIC "-//W3C//DTD SVG 1.1//EN"
 "http://www.w3.org/Graphics/SVG/1.1/DTD/svg11.dtd">
<!-- Generated by graphviz version 2.43.0 (0)
 -->
<!-- Title: %3 Pages: 1 -->
<svg width="1006pt" height="238pt"
 viewBox="0.00 0.00 1005.50 237.74" xmlns="http://www.w3.org/2000/svg" xmlns:xlink="http://www.w3.org/1999/xlink">
<g id="graph0" class="graph" transform="scale(1 1) rotate(0) translate(36 201.74)">
<title>%3</title>
<polygon fill="dimgray" stroke="transparent" points="-36,36 -36,-201.74 969.5,-201.74 969.5,36 -36,36"/>
<text text-anchor="middle" x="466.75" y="-150.54" font-family="Helvetica,sans-Serif" font-size="14.00">Sweep&#39;s Plan &amp; Progress</text>
<!-- start -->
<g id="node1" class="node">
<title>start</title>
</g>
<!-- e36041c4&#45;971c&#45;4b43&#45;accc&#45;f617f781a360 -->
<g id="node3" class="node">
<title>e36041c4&#45;971c&#45;4b43&#45;accc&#45;f617f781a360</title>
<ellipse fill="#0ee832" stroke="black" cx="230" cy="-99.87" rx="96.75" ry="26.74"/>
<text text-anchor="middle" x="230" y="-103.67" font-family="Helvetica,sans-Serif" font-size="14.00">✓ Modify</text>
<text text-anchor="middle" x="230" y="-88.67" font-family="Helvetica,sans-Serif" font-size="14.00">public/index.html</text>
</g>
<!-- start&#45;&gt;e36041c4&#45;971c&#45;4b43&#45;accc&#45;f617f781a360 -->
<g id="edge6" class="edge">
<title>start&#45;&gt;e36041c4&#45;971c&#45;4b43&#45;accc&#45;f617f781a360</title>
<path fill="none" stroke="black" d="M81.66,-99.87C85.13,-99.87 101.74,-99.87 122.68,-99.87"/>
<polygon fill="black" stroke="black" points="122.92,-103.37 132.92,-99.87 122.92,-96.37 122.92,-103.37"/>
<text text-anchor="middle" x="107.31" y="-106.67" font-family="Helvetica,sans-Serif" font-size="14.00">Start</text>
</g>
<!-- end -->
<g id="node2" class="node">
<title>end</title>
</g>
<!-- 30fd3135&#45;6690&#45;4f88&#45;ba85&#45;8b5a11781b92 -->
<g id="node4" class="node">
<title>30fd3135&#45;6690&#45;4f88&#45;ba85&#45;8b5a11781b92</title>
<ellipse fill="#0ee832" stroke="black" cx="488" cy="-99.87" rx="60.21" ry="26.74"/>
<text text-anchor="middle" x="488" y="-103.67" font-family="Helvetica,sans-Serif" font-size="14.00">✓ Modify</text>
<text text-anchor="middle" x="488" y="-88.67" font-family="Helvetica,sans-Serif" font-size="14.00">src/App.js</text>
</g>
<!-- e36041c4&#45;971c&#45;4b43&#45;accc&#45;f617f781a360&#45;&gt;30fd3135&#45;6690&#45;4f88&#45;ba85&#45;8b5a11781b92 -->
<g id="edge2" class="edge">
<title>e36041c4&#45;971c&#45;4b43&#45;accc&#45;f617f781a360&#45;&gt;30fd3135&#45;6690&#45;4f88&#45;ba85&#45;8b5a11781b92</title>
<path fill="none" stroke="black" d="M327,-99.87C357.14,-99.87 387.27,-99.87 417.41,-99.87"/>
<polygon fill="black" stroke="black" points="417.63,-103.37 427.63,-99.87 417.63,-96.37 417.63,-103.37"/>
</g>
<!-- b5bfb31f&#45;882e&#45;4fcf&#45;90ef&#45;5a37c03a9d6e -->
<g id="node6" class="node">
<title>b5bfb31f&#45;882e&#45;4fcf&#45;90ef&#45;5a37c03a9d6e</title>
<polygon fill="#0ee832" stroke="black" points="330,-36 0,-36 0,0 330,0 330,-36"/>
<text text-anchor="middle" x="165" y="-14.3" font-family="Helvetica,sans-Serif" font-size="14.00">✓ Run GitHub Actions for `public/index.html`</text>
</g>
<!-- e36041c4&#45;971c&#45;4b43&#45;accc&#45;f617f781a360&#45;&gt;b5bfb31f&#45;882e&#45;4fcf&#45;90ef&#45;5a37c03a9d6e -->
<g id="edge1" class="edge">
<title>e36041c4&#45;971c&#45;4b43&#45;accc&#45;f617f781a360&#45;&gt;b5bfb31f&#45;882e&#45;4fcf&#45;90ef&#45;5a37c03a9d6e</title>
<path fill="none" stroke="black" stroke-dasharray="5,2" d="M209.43,-73.6C201.72,-64.13 192.97,-53.37 185.29,-43.93"/>
<polygon fill="black" stroke="black" points="187.89,-41.58 178.86,-36.04 182.46,-46 187.89,-41.58"/>
</g>
<!-- 770f3d8a&#45;ac63&#45;4c4d&#45;94cd&#45;35bb02291ea5 -->
<g id="node5" class="node">
<title>770f3d8a&#45;ac63&#45;4c4d&#45;94cd&#45;35bb02291ea5</title>
<ellipse fill="white" stroke="black" cx="721" cy="-99.87" rx="67.35" ry="26.74"/>
<text text-anchor="middle" x="721" y="-103.67" font-family="Helvetica,sans-Serif" font-size="14.00">▶ Modify</text>
<text text-anchor="middle" x="721" y="-88.67" font-family="Helvetica,sans-Serif" font-size="14.00">src/index.js</text>
</g>
<!-- 30fd3135&#45;6690&#45;4f88&#45;ba85&#45;8b5a11781b92&#45;&gt;770f3d8a&#45;ac63&#45;4c4d&#45;94cd&#45;35bb02291ea5 -->
<g id="edge4" class="edge">
<title>30fd3135&#45;6690&#45;4f88&#45;ba85&#45;8b5a11781b92&#45;&gt;770f3d8a&#45;ac63&#45;4c4d&#45;94cd&#45;35bb02291ea5</title>
<path fill="none" stroke="black" d="M548.53,-99.87C580.14,-99.87 611.75,-99.87 643.36,-99.87"/>
<polygon fill="black" stroke="black" points="643.63,-103.37 653.63,-99.87 643.63,-96.37 643.63,-103.37"/>
</g>
<!-- 293deb29&#45;5df9&#45;48d3&#45;a6a3&#45;1067fa954408 -->
<g id="node7" class="node">
<title>293deb29&#45;5df9&#45;48d3&#45;a6a3&#45;1067fa954408</title>
<polygon fill="yellow" stroke="black" points="628,-36 348,-36 348,0 628,0 628,-36"/>
<text text-anchor="middle" x="488" y="-14.3" font-family="Helvetica,sans-Serif" font-size="14.00">⋯ Run GitHub Actions for `src/App.js`</text>
</g>
<!-- 30fd3135&#45;6690&#45;4f88&#45;ba85&#45;8b5a11781b92&#45;&gt;293deb29&#45;5df9&#45;48d3&#45;a6a3&#45;1067fa954408 -->
<g id="edge3" class="edge">
<title>30fd3135&#45;6690&#45;4f88&#45;ba85&#45;8b5a11781b92&#45;&gt;293deb29&#45;5df9&#45;48d3&#45;a6a3&#45;1067fa954408</title>
<path fill="none" stroke="black" stroke-dasharray="5,2" d="M488,-72.72C488,-64.27 488,-54.89 488,-46.36"/>
<polygon fill="black" stroke="black" points="491.5,-46.15 488,-36.15 484.5,-46.15 491.5,-46.15"/>
</g>
<!-- 770f3d8a&#45;ac63&#45;4c4d&#45;94cd&#45;35bb02291ea5&#45;&gt;end -->
<g id="edge7" class="edge">
<title>770f3d8a&#45;ac63&#45;4c4d&#45;94cd&#45;35bb02291ea5&#45;&gt;end</title>
<path fill="none" stroke="black" d="M788.26,-99.87C806.48,-99.87 824.16,-99.87 835.06,-99.87"/>
<polygon fill="black" stroke="black" points="835.28,-103.37 845.28,-99.87 835.28,-96.37 835.28,-103.37"/>
<text text-anchor="middle" x="816.84" y="-106.67" font-family="Helvetica,sans-Serif" font-size="14.00">Finish</text>
</g>
<!-- 19515fa3&#45;eb13&#45;4a15&#45;b9a1&#45;bc29a2bff439 -->
<g id="node8" class="node">
<title>19515fa3&#45;eb13&#45;4a15&#45;b9a1&#45;bc29a2bff439</title>
<polygon fill="white" stroke="black" points="933.5,-36 646.5,-36 646.5,0 933.5,0 933.5,-36"/>
<text text-anchor="middle" x="790" y="-14.3" font-family="Helvetica,sans-Serif" font-size="14.00">▶ Run GitHub Actions for `src/index.js`</text>
</g>
<!-- 770f3d8a&#45;ac63&#45;4c4d&#45;94cd&#45;35bb02291ea5&#45;&gt;19515fa3&#45;eb13&#45;4a15&#45;b9a1&#45;bc29a2bff439 -->
<g id="edge5" class="edge">
<title>770f3d8a&#45;ac63&#45;4c4d&#45;94cd&#45;35bb02291ea5&#45;&gt;19515fa3&#45;eb13&#45;4a15&#45;b9a1&#45;bc29a2bff439</title>
<path fill="none" stroke="black" stroke-dasharray="5,2" d="M742.45,-74.04C750.74,-64.45 760.2,-53.5 768.49,-43.9"/>
<polygon fill="black" stroke="black" points="771.23,-46.08 775.12,-36.22 765.94,-41.5 771.23,-46.08"/>
</g>
</g>
</svg>
