<?xml version="1.0" encoding="UTF-8" standalone="no"?>
<!DOCTYPE svg PUBLIC "-//W3C//DTD SVG 1.1//EN"
 "http://www.w3.org/Graphics/SVG/1.1/DTD/svg11.dtd">
<!-- Generated by graphviz version 2.43.0 (0)
 -->
<!-- Title: %3 Pages: 1 -->
<svg width="686pt" height="165pt"
 viewBox="0.00 0.00 686.00 164.74" xmlns="http://www.w3.org/2000/svg" xmlns:xlink="http://www.w3.org/1999/xlink">
<g id="graph0" class="graph" transform="scale(1 1) rotate(0) translate(36 128.74)">
<title>%3</title>
<polygon fill="dimgray" stroke="transparent" points="-36,36 -36,-128.74 650,-128.74 650,36 -36,36"/>
<text text-anchor="middle" x="307" y="-77.54" font-family="Helvetica,sans-Serif" font-size="14.00">Sweep&#39;s Plan &amp; Progress</text>
<!-- start -->
<g id="node1" class="node">
<title>start</title>
</g>
<!-- 12b5ad0d&#45;b9d5&#45;4718&#45;b0fa&#45;65161f5cd4ee -->
<g id="node3" class="node">
<title>12b5ad0d&#45;b9d5&#45;4718&#45;b0fa&#45;65161f5cd4ee</title>
<ellipse fill="yellow" stroke="black" cx="112.5" cy="-26.87" rx="60.21" ry="26.74"/>
<text text-anchor="middle" x="112.5" y="-30.67" font-family="Helvetica,sans-Serif" font-size="14.00">⋯ Modify</text>
<text text-anchor="middle" x="112.5" y="-15.67" font-family="Helvetica,sans-Serif" font-size="14.00">src/App.js</text>
</g>
<!-- start&#45;&gt;12b5ad0d&#45;b9d5&#45;4718&#45;b0fa&#45;65161f5cd4ee -->
<g id="edge3" class="edge">
<title>start&#45;&gt;12b5ad0d&#45;b9d5&#45;4718&#45;b0fa&#45;65161f5cd4ee</title>
<path fill="none" stroke="black" d="M1.22,-26.87C4.88,-26.87 22.16,-26.87 42.06,-26.87"/>
<polygon fill="black" stroke="black" points="42.31,-30.37 52.31,-26.87 42.31,-23.37 42.31,-30.37"/>
<text text-anchor="middle" x="26.7" y="-33.67" font-family="Helvetica,sans-Serif" font-size="14.00">Start</text>
</g>
<!-- end -->
<g id="node2" class="node">
<title>end</title>
</g>
<!-- 9eaa64c2&#45;94be&#45;4878&#45;8da8&#45;3a0d24735750 -->
<g id="node4" class="node">
<title>9eaa64c2&#45;94be&#45;4878&#45;8da8&#45;3a0d24735750</title>
<ellipse fill="white" stroke="black" cx="290.5" cy="-26.87" rx="82.05" ry="26.74"/>
<text text-anchor="middle" x="290.5" y="-30.67" font-family="Helvetica,sans-Serif" font-size="14.00">▶ Modify</text>
<text text-anchor="middle" x="290.5" y="-15.67" font-family="Helvetica,sans-Serif" font-size="14.00">src/App.test.js</text>
</g>
<!-- 12b5ad0d&#45;b9d5&#45;4718&#45;b0fa&#45;65161f5cd4ee&#45;&gt;9eaa64c2&#45;94be&#45;4878&#45;8da8&#45;3a0d24735750 -->
<g id="edge1" class="edge">
<title>12b5ad0d&#45;b9d5&#45;4718&#45;b0fa&#45;65161f5cd4ee&#45;&gt;9eaa64c2&#45;94be&#45;4878&#45;8da8&#45;3a0d24735750</title>
<path fill="none" stroke="black" d="M172.64,-26.87C181.05,-26.87 189.45,-26.87 197.85,-26.87"/>
<polygon fill="black" stroke="black" points="198.09,-30.37 208.09,-26.87 198.09,-23.37 198.09,-30.37"/>
</g>
<!-- ab247f7d&#45;f69d&#45;4c0c&#45;9737&#45;67c4c8aa58d6 -->
<g id="node5" class="node">
<title>ab247f7d&#45;f69d&#45;4c0c&#45;9737&#45;67c4c8aa58d6</title>
<ellipse fill="white" stroke="black" cx="481.5" cy="-26.87" rx="73.58" ry="26.74"/>
<text text-anchor="middle" x="481.5" y="-30.67" font-family="Helvetica,sans-Serif" font-size="14.00">▶ Modify</text>
<text text-anchor="middle" x="481.5" y="-15.67" font-family="Helvetica,sans-Serif" font-size="14.00">README.md</text>
</g>
<!-- 9eaa64c2&#45;94be&#45;4878&#45;8da8&#45;3a0d24735750&#45;&gt;ab247f7d&#45;f69d&#45;4c0c&#45;9737&#45;67c4c8aa58d6 -->
<g id="edge2" class="edge">
<title>9eaa64c2&#45;94be&#45;4878&#45;8da8&#45;3a0d24735750&#45;&gt;ab247f7d&#45;f69d&#45;4c0c&#45;9737&#45;67c4c8aa58d6</title>
<path fill="none" stroke="black" d="M372.57,-26.87C380.94,-26.87 389.31,-26.87 397.68,-26.87"/>
<polygon fill="black" stroke="black" points="397.89,-30.37 407.89,-26.87 397.89,-23.37 397.89,-30.37"/>
</g>
<!-- ab247f7d&#45;f69d&#45;4c0c&#45;9737&#45;67c4c8aa58d6&#45;&gt;end -->
<g id="edge4" class="edge">
<title>ab247f7d&#45;f69d&#45;4c0c&#45;9737&#45;67c4c8aa58d6&#45;&gt;end</title>
<path fill="none" stroke="black" d="M555.22,-26.87C573.84,-26.87 591.64,-26.87 602.56,-26.87"/>
<polygon fill="black" stroke="black" points="602.78,-30.37 612.78,-26.87 602.78,-23.37 602.78,-30.37"/>
<text text-anchor="middle" x="584.02" y="-33.67" font-family="Helvetica,sans-Serif" font-size="14.00">Finish</text>
</g>
</g>
</svg>
