<?xml version="1.0" encoding="UTF-8" standalone="no"?>
<!DOCTYPE svg PUBLIC "-//W3C//DTD SVG 1.1//EN"
 "http://www.w3.org/Graphics/SVG/1.1/DTD/svg11.dtd">
<!-- Generated by graphviz version 2.43.0 (0)
 -->
<!-- Title: %3 Pages: 1 -->
<svg width="1001pt" height="238pt"
 viewBox="0.00 0.00 1001.00 237.74" xmlns="http://www.w3.org/2000/svg" xmlns:xlink="http://www.w3.org/1999/xlink">
<g id="graph0" class="graph" transform="scale(1 1) rotate(0) translate(36 201.74)">
<title>%3</title>
<polygon fill="dimgray" stroke="transparent" points="-36,36 -36,-201.74 965,-201.74 965,36 -36,36"/>
<text text-anchor="middle" x="464.5" y="-150.54" font-family="Helvetica,sans-Serif" font-size="14.00">Sweep&#39;s Plan &amp; Progress</text>
<!-- start -->
<g id="node1" class="node">
<title>start</title>
</g>
<!-- e36041c4&#45;971c&#45;4b43&#45;accc&#45;f617f781a360 -->
<g id="node3" class="node">
<title>e36041c4&#45;971c&#45;4b43&#45;accc&#45;f617f781a360</title>
<ellipse fill="yellow" stroke="black" cx="228.5" cy="-99.87" rx="96.75" ry="26.74"/>
<text text-anchor="middle" x="228.5" y="-103.67" font-family="Helvetica,sans-Serif" font-size="14.00">⋯ Modify</text>
<text text-anchor="middle" x="228.5" y="-88.67" font-family="Helvetica,sans-Serif" font-size="14.00">public/index.html</text>
</g>
<!-- start&#45;&gt;e36041c4&#45;971c&#45;4b43&#45;accc&#45;f617f781a360 -->
<g id="edge6" class="edge">
<title>start&#45;&gt;e36041c4&#45;971c&#45;4b43&#45;accc&#45;f617f781a360</title>
<path fill="none" stroke="black" d="M80.16,-99.87C83.63,-99.87 100.24,-99.87 121.18,-99.87"/>
<polygon fill="black" stroke="black" points="121.42,-103.37 131.42,-99.87 121.42,-96.37 121.42,-103.37"/>
<text text-anchor="middle" x="105.81" y="-106.67" font-family="Helvetica,sans-Serif" font-size="14.00">Start</text>
</g>
<!-- end -->
<g id="node2" class="node">
<title>end</title>
</g>
<!-- 30fd3135&#45;6690&#45;4f88&#45;ba85&#45;8b5a11781b92 -->
<g id="node4" class="node">
<title>30fd3135&#45;6690&#45;4f88&#45;ba85&#45;8b5a11781b92</title>
<ellipse fill="white" stroke="black" cx="485.5" cy="-99.87" rx="60.21" ry="26.74"/>
<text text-anchor="middle" x="485.5" y="-103.67" font-family="Helvetica,sans-Serif" font-size="14.00">▶ Modify</text>
<text text-anchor="middle" x="485.5" y="-88.67" font-family="Helvetica,sans-Serif" font-size="14.00">src/App.js</text>
</g>
<!-- e36041c4&#45;971c&#45;4b43&#45;accc&#45;f617f781a360&#45;&gt;30fd3135&#45;6690&#45;4f88&#45;ba85&#45;8b5a11781b92 -->
<g id="edge2" class="edge">
<title>e36041c4&#45;971c&#45;4b43&#45;accc&#45;f617f781a360&#45;&gt;30fd3135&#45;6690&#45;4f88&#45;ba85&#45;8b5a11781b92</title>
<path fill="none" stroke="black" d="M325.38,-99.87C355.25,-99.87 385.13,-99.87 415.01,-99.87"/>
<polygon fill="black" stroke="black" points="415.14,-103.37 425.14,-99.87 415.14,-96.37 415.14,-103.37"/>
</g>
<!-- b5bfb31f&#45;882e&#45;4fcf&#45;90ef&#45;5a37c03a9d6e -->
<g id="node6" class="node">
<title>b5bfb31f&#45;882e&#45;4fcf&#45;90ef&#45;5a37c03a9d6e</title>
<polygon fill="white" stroke="black" points="329,-36 0,-36 0,0 329,0 329,-36"/>
<text text-anchor="middle" x="164.5" y="-14.3" font-family="Helvetica,sans-Serif" font-size="14.00">▶ Run GitHub Actions for `public/index.html`</text>
</g>
<!-- e36041c4&#45;971c&#45;4b43&#45;accc&#45;f617f781a360&#45;&gt;b5bfb31f&#45;882e&#45;4fcf&#45;90ef&#45;5a37c03a9d6e -->
<g id="edge1" class="edge">
<title>e36041c4&#45;971c&#45;4b43&#45;accc&#45;f617f781a360&#45;&gt;b5bfb31f&#45;882e&#45;4fcf&#45;90ef&#45;5a37c03a9d6e</title>
<path fill="none" stroke="black" stroke-dasharray="5,2" d="M207.9,-73.16C200.51,-63.94 192.19,-53.56 184.83,-44.37"/>
<polygon fill="black" stroke="black" points="187.38,-41.95 178.39,-36.34 181.91,-46.33 187.38,-41.95"/>
</g>
<!-- 770f3d8a&#45;ac63&#45;4c4d&#45;94cd&#45;35bb02291ea5 -->
<g id="node5" class="node">
<title>770f3d8a&#45;ac63&#45;4c4d&#45;94cd&#45;35bb02291ea5</title>
<ellipse fill="white" stroke="black" cx="717.5" cy="-99.87" rx="67.35" ry="26.74"/>
<text text-anchor="middle" x="717.5" y="-103.67" font-family="Helvetica,sans-Serif" font-size="14.00">▶ Modify</text>
<text text-anchor="middle" x="717.5" y="-88.67" font-family="Helvetica,sans-Serif" font-size="14.00">src/index.js</text>
</g>
<!-- 30fd3135&#45;6690&#45;4f88&#45;ba85&#45;8b5a11781b92&#45;&gt;770f3d8a&#45;ac63&#45;4c4d&#45;94cd&#45;35bb02291ea5 -->
<g id="edge4" class="edge">
<title>30fd3135&#45;6690&#45;4f88&#45;ba85&#45;8b5a11781b92&#45;&gt;770f3d8a&#45;ac63&#45;4c4d&#45;94cd&#45;35bb02291ea5</title>
<path fill="none" stroke="black" d="M545.77,-99.87C577.14,-99.87 608.52,-99.87 639.89,-99.87"/>
<polygon fill="black" stroke="black" points="640.08,-103.37 650.08,-99.87 640.08,-96.37 640.08,-103.37"/>
</g>
<!-- 293deb29&#45;5df9&#45;48d3&#45;a6a3&#45;1067fa954408 -->
<g id="node7" class="node">
<title>293deb29&#45;5df9&#45;48d3&#45;a6a3&#45;1067fa954408</title>
<polygon fill="white" stroke="black" points="623.5,-36 347.5,-36 347.5,0 623.5,0 623.5,-36"/>
<text text-anchor="middle" x="485.5" y="-14.3" font-family="Helvetica,sans-Serif" font-size="14.00">▶ Run GitHub Actions for `src/App.js`</text>
</g>
<!-- 30fd3135&#45;6690&#45;4f88&#45;ba85&#45;8b5a11781b92&#45;&gt;293deb29&#45;5df9&#45;48d3&#45;a6a3&#45;1067fa954408 -->
<g id="edge3" class="edge">
<title>30fd3135&#45;6690&#45;4f88&#45;ba85&#45;8b5a11781b92&#45;&gt;293deb29&#45;5df9&#45;48d3&#45;a6a3&#45;1067fa954408</title>
<path fill="none" stroke="black" stroke-dasharray="5,2" d="M485.5,-72.72C485.5,-64.27 485.5,-54.89 485.5,-46.36"/>
<polygon fill="black" stroke="black" points="489,-46.15 485.5,-36.15 482,-46.15 489,-46.15"/>
</g>
<!-- 770f3d8a&#45;ac63&#45;4c4d&#45;94cd&#45;35bb02291ea5&#45;&gt;end -->
<g id="edge7" class="edge">
<title>770f3d8a&#45;ac63&#45;4c4d&#45;94cd&#45;35bb02291ea5&#45;&gt;end</title>
<path fill="none" stroke="black" d="M784.76,-99.87C802.98,-99.87 820.66,-99.87 831.56,-99.87"/>
<polygon fill="black" stroke="black" points="831.78,-103.37 841.78,-99.87 831.78,-96.37 831.78,-103.37"/>
<text text-anchor="middle" x="813.34" y="-106.67" font-family="Helvetica,sans-Serif" font-size="14.00">Finish</text>
</g>
<!-- 19515fa3&#45;eb13&#45;4a15&#45;b9a1&#45;bc29a2bff439 -->
<g id="node8" class="node">
<title>19515fa3&#45;eb13&#45;4a15&#45;b9a1&#45;bc29a2bff439</title>
<polygon fill="white" stroke="black" points="929,-36 642,-36 642,0 929,0 929,-36"/>
<text text-anchor="middle" x="785.5" y="-14.3" font-family="Helvetica,sans-Serif" font-size="14.00">▶ Run GitHub Actions for `src/index.js`</text>
</g>
<!-- 770f3d8a&#45;ac63&#45;4c4d&#45;94cd&#45;35bb02291ea5&#45;&gt;19515fa3&#45;eb13&#45;4a15&#45;b9a1&#45;bc29a2bff439 -->
<g id="edge5" class="edge">
<title>770f3d8a&#45;ac63&#45;4c4d&#45;94cd&#45;35bb02291ea5&#45;&gt;19515fa3&#45;eb13&#45;4a15&#45;b9a1&#45;bc29a2bff439</title>
<path fill="none" stroke="black" stroke-dasharray="5,2" d="M738.64,-74.04C746.81,-64.45 756.13,-53.5 764.3,-43.9"/>
<polygon fill="black" stroke="black" points="767.02,-46.11 770.84,-36.22 761.69,-41.57 767.02,-46.11"/>
</g>
</g>
</svg>
