<?xml version="1.0" encoding="UTF-8" standalone="no"?>
<!DOCTYPE svg PUBLIC "-//W3C//DTD SVG 1.1//EN"
 "http://www.w3.org/Graphics/SVG/1.1/DTD/svg11.dtd">
<!-- Generated by graphviz version 2.43.0 (0)
 -->
<!-- Title: %3 Pages: 1 -->
<svg width="374pt" height="238pt"
 viewBox="0.00 0.00 374.00 237.74" xmlns="http://www.w3.org/2000/svg" xmlns:xlink="http://www.w3.org/1999/xlink">
<g id="graph0" class="graph" transform="scale(1 1) rotate(0) translate(36 201.74)">
<title>%3</title>
<polygon fill="dimgray" stroke="transparent" points="-36,36 -36,-201.74 338,-201.74 338,36 -36,36"/>
<text text-anchor="middle" x="151" y="-150.54" font-family="Helvetica,sans-Serif" font-size="14.00">Sweep&#39;s Plan &amp; Progress</text>
<!-- start -->
<g id="node1" class="node">
<title>start</title>
</g>
<!-- 0b8b9d30&#45;9c46&#45;4277&#45;b64b&#45;d156ad0cc053 -->
<g id="node3" class="node">
<title>0b8b9d30&#45;9c46&#45;4277&#45;b64b&#45;d156ad0cc053</title>
<ellipse fill="#ee0000" stroke="black" cx="151" cy="-99.87" rx="75.82" ry="26.74"/>
<text text-anchor="middle" x="151" y="-103.67" font-family="Helvetica,sans-Serif" font-size="14.00">✗ Modify</text>
<text text-anchor="middle" x="151" y="-88.67" font-family="Helvetica,sans-Serif" font-size="14.00">package.json</text>
</g>
<!-- start&#45;&gt;0b8b9d30&#45;9c46&#45;4277&#45;b64b&#45;d156ad0cc053 -->
<g id="edge2" class="edge">
<title>start&#45;&gt;0b8b9d30&#45;9c46&#45;4277&#45;b64b&#45;d156ad0cc053</title>
<path fill="none" stroke="black" d="M23.82,-99.87C27.66,-99.87 44.59,-99.87 64.92,-99.87"/>
<polygon fill="black" stroke="black" points="65.12,-103.37 75.12,-99.87 65.12,-96.37 65.12,-103.37"/>
<text text-anchor="middle" x="49.42" y="-106.67" font-family="Helvetica,sans-Serif" font-size="14.00">Start</text>
</g>
<!-- end -->
<g id="node2" class="node">
<title>end</title>
</g>
<!-- 0b8b9d30&#45;9c46&#45;4277&#45;b64b&#45;d156ad0cc053&#45;&gt;end -->
<g id="edge3" class="edge">
<title>0b8b9d30&#45;9c46&#45;4277&#45;b64b&#45;d156ad0cc053&#45;&gt;end</title>
<path fill="none" stroke="black" d="M227.01,-99.87C245.63,-99.87 263.32,-99.87 274.15,-99.87"/>
<polygon fill="black" stroke="black" points="274.29,-103.37 284.29,-99.87 274.29,-96.37 274.29,-103.37"/>
<text text-anchor="middle" x="255.58" y="-106.67" font-family="Helvetica,sans-Serif" font-size="14.00">Finish</text>
</g>
<!-- 1b096b2a&#45;b9e4&#45;4e61&#45;b637&#45;ed6de3e4f3c1 -->
<g id="node4" class="node">
<title>1b096b2a&#45;b9e4&#45;4e61&#45;b637&#45;ed6de3e4f3c1</title>
<polygon fill="yellow" stroke="black" points="302,-36 0,-36 0,0 302,0 302,-36"/>
<text text-anchor="middle" x="151" y="-14.3" font-family="Helvetica,sans-Serif" font-size="14.00">⋯ Run GitHub Actions for `package.json`</text>
</g>
<!-- 0b8b9d30&#45;9c46&#45;4277&#45;b64b&#45;d156ad0cc053&#45;&gt;1b096b2a&#45;b9e4&#45;4e61&#45;b637&#45;ed6de3e4f3c1 -->
<g id="edge1" class="edge">
<title>0b8b9d30&#45;9c46&#45;4277&#45;b64b&#45;d156ad0cc053&#45;&gt;1b096b2a&#45;b9e4&#45;4e61&#45;b637&#45;ed6de3e4f3c1</title>
<path fill="none" stroke="black" stroke-dasharray="5,2" d="M151,-72.72C151,-64.27 151,-54.89 151,-46.36"/>
<polygon fill="black" stroke="black" points="154.5,-46.15 151,-36.15 147.5,-46.15 154.5,-46.15"/>
</g>
</g>
</svg>
