<?xml version="1.0" encoding="UTF-8" standalone="no"?>
<!DOCTYPE svg PUBLIC "-//W3C//DTD SVG 1.1//EN"
 "http://www.w3.org/Graphics/SVG/1.1/DTD/svg11.dtd">
<!-- Generated by graphviz version 2.43.0 (0)
 -->
<!-- Title: %3 Pages: 1 -->
<svg width="401pt" height="238pt"
 viewBox="0.00 0.00 401.00 237.74" xmlns="http://www.w3.org/2000/svg" xmlns:xlink="http://www.w3.org/1999/xlink">
<g id="graph0" class="graph" transform="scale(1 1) rotate(0) translate(36 201.74)">
<title>%3</title>
<polygon fill="dimgray" stroke="transparent" points="-36,36 -36,-201.74 365,-201.74 365,36 -36,36"/>
<text text-anchor="middle" x="164.5" y="-150.54" font-family="Helvetica,sans-Serif" font-size="14.00">Sweep&#39;s Plan &amp; Progress</text>
<!-- start -->
<g id="node1" class="node">
<title>start</title>
</g>
<!-- 54ab3095&#45;1cc1&#45;4571&#45;805b&#45;84b2e47027df -->
<g id="node3" class="node">
<title>54ab3095&#45;1cc1&#45;4571&#45;805b&#45;84b2e47027df</title>
<ellipse fill="yellow" stroke="black" cx="164.5" cy="-99.87" rx="96.75" ry="26.74"/>
<text text-anchor="middle" x="164.5" y="-103.67" font-family="Helvetica,sans-Serif" font-size="14.00">⋯ Modify</text>
<text text-anchor="middle" x="164.5" y="-88.67" font-family="Helvetica,sans-Serif" font-size="14.00">public/index.html</text>
</g>
<!-- start&#45;&gt;54ab3095&#45;1cc1&#45;4571&#45;805b&#45;84b2e47027df -->
<g id="edge2" class="edge">
<title>start&#45;&gt;54ab3095&#45;1cc1&#45;4571&#45;805b&#45;84b2e47027df</title>
<path fill="none" stroke="black" d="M16.16,-99.87C19.63,-99.87 36.24,-99.87 57.18,-99.87"/>
<polygon fill="black" stroke="black" points="57.42,-103.37 67.42,-99.87 57.42,-96.37 57.42,-103.37"/>
<text text-anchor="middle" x="41.81" y="-106.67" font-family="Helvetica,sans-Serif" font-size="14.00">Start</text>
</g>
<!-- end -->
<g id="node2" class="node">
<title>end</title>
</g>
<!-- 54ab3095&#45;1cc1&#45;4571&#45;805b&#45;84b2e47027df&#45;&gt;end -->
<g id="edge3" class="edge">
<title>54ab3095&#45;1cc1&#45;4571&#45;805b&#45;84b2e47027df&#45;&gt;end</title>
<path fill="none" stroke="black" d="M261.78,-99.87C280.75,-99.87 298.01,-99.87 308.62,-99.87"/>
<polygon fill="black" stroke="black" points="308.82,-103.37 318.82,-99.87 308.82,-96.37 308.82,-103.37"/>
<text text-anchor="middle" x="290.19" y="-106.67" font-family="Helvetica,sans-Serif" font-size="14.00">Finish</text>
</g>
<!-- 2f2a0d79&#45;7765&#45;418a&#45;98f1&#45;a574aaa9b6c5 -->
<g id="node4" class="node">
<title>2f2a0d79&#45;7765&#45;418a&#45;98f1&#45;a574aaa9b6c5</title>
<polygon fill="white" stroke="black" points="329,-36 0,-36 0,0 329,0 329,-36"/>
<text text-anchor="middle" x="164.5" y="-14.3" font-family="Helvetica,sans-Serif" font-size="14.00">▶ Run GitHub Actions for `public/index.html`</text>
</g>
<!-- 54ab3095&#45;1cc1&#45;4571&#45;805b&#45;84b2e47027df&#45;&gt;2f2a0d79&#45;7765&#45;418a&#45;98f1&#45;a574aaa9b6c5 -->
<g id="edge1" class="edge">
<title>54ab3095&#45;1cc1&#45;4571&#45;805b&#45;84b2e47027df&#45;&gt;2f2a0d79&#45;7765&#45;418a&#45;98f1&#45;a574aaa9b6c5</title>
<path fill="none" stroke="black" stroke-dasharray="5,2" d="M164.5,-72.72C164.5,-64.27 164.5,-54.89 164.5,-46.36"/>
<polygon fill="black" stroke="black" points="168,-46.15 164.5,-36.15 161,-46.15 168,-46.15"/>
</g>
</g>
</svg>
